<svg xmlns="http://www.w3.org/2000/svg" xmlns:xlink="http://www.w3.org/1999/xlink" width="180" height="56" viewBox="0 0 180 56">
    <defs>
        <path id="prefix__a" d="M0.044 0.093L47.444 0.093 47.444 11.518 0.044 11.518z"/>
    </defs>
    <g fill="none" fill-rule="evenodd">
        <g transform="translate(14.77 .092)">
            <mask id="prefix__b" fill="#fff">
                <use xlink:href="#prefix__a"/>
            </mask>
            <path fill="#FFF" d="M44.618 11.518H.438c-.25 0-.437-.23-.386-.474l1.29-6.24C1.91 2.062 4.328.094 7.13.094h39.525c.5 0 .873.458.772.947l-2.038 9.85c-.075.365-.398.628-.771.628" mask="url(#prefix__b)"/>
        </g>
        <path fill="#FFF" d="M52.364 28.434l-8.95-10.677c-.423-.504-1.242-.298-1.375.347l-.747 3.608c-.038.182-.199.314-.386.314H2.594c-.186 0-.347.13-.385.313L.01 32.977c-.051.245.135.474.384.474H38.38c.25 0 .437.229.386.473l-.661 3.197c-.142.685.613 1.201 1.2.821l12.885-8.34c.397-.258.48-.805.175-1.168M19.76 55.292H6.146c-.25 0-.437-.23-.386-.474l2.2-10.637c.039-.183.2-.314.387-.314h18.105c.25 0 .436.229.386.474l-1.291 6.239c-.568 2.744-2.985 4.712-5.787 4.712M79.772 18.083L89.558 18.083 90.283 14.148 80.499 14.148 81.398 9.335 91.885 9.335 92.61 5.4 78.092 5.4 74.368 25.765 78.342 25.765zM95.951 8.662c1.214 0 2.164-.889 2.164-2.024 0-1.127-.99-2.08-2.164-2.08-1.166 0-2.08.914-2.08 2.08 0 1.154.895 2.024 2.08 2.024M94.408 25.765L97.236 10.447 93.457 10.447 90.629 25.765zM106.97 13.821c.974 0 1.631.188 2.01.573.316.32.464.808.452 1.497 0 .622-.073 1.115-.16 1.638l-1.66 8.236h3.782l1.66-8.3c.117-.704.258-1.715.258-2.527 0-3.095-1.815-4.8-5.108-4.8-1.373 0-2.855.462-4.003 1.217l.146-.908h-3.77L97.78 25.765h3.75l1.81-9.735c.925-1.425 2.212-2.209 3.631-2.209M118.862 19.284c0-3.233 2.039-5.491 4.958-5.491 1.36 0 2.33.438 2.747.906l-.994 5.458c-.676 1.052-2.011 2.094-3.52 2.094-1.542 0-3.191-.78-3.191-2.967m2.378 6.65c1.339 0 2.718-.554 3.665-1.236l-.22 1.067h3.592L132.2 4.56h-3.751l-1.16 6.28c-.72-.394-1.905-.728-3.524-.728-2.206 0-4.414.918-6.058 2.519-1.792 1.745-2.78 4.168-2.78 6.822 0 3.998 2.42 6.482 6.314 6.482M76.184 34.234L86.671 34.234 87.396 30.3 72.877 30.3 69.153 50.665 73.128 50.665 74.557 42.983 84.344 42.983 85.068 39.048 75.284 39.048zM93.905 38.72c1.969 0 3.192 1.202 3.192 3.136 0 2.574-1.778 5.351-4.65 5.351-2.121 0-3.388-1.245-3.388-3.332 0-3.037 2.554-5.154 4.846-5.154m.365-3.71c-5.129 0-9.146 4.176-9.146 9.509 0 3.827 2.785 6.398 6.93 6.398 5.202 0 8.978-3.988 8.978-9.482 0-3.784-2.781-6.426-6.762-6.426M114.451 41.856c0 2.574-1.777 5.351-4.65 5.351-2.12 0-3.387-1.245-3.387-3.332 0-3.037 2.554-5.154 4.846-5.154 1.968 0 3.191 1.201 3.191 3.135m-2.827-6.846c-5.128 0-9.145 4.177-9.145 9.51 0 3.827 2.785 6.398 6.93 6.398 5.202 0 8.977-3.988 8.977-9.482 0-3.784-2.78-6.426-6.762-6.426M131.474 39.598l-.995 5.459c-.675 1.052-2.01 2.094-3.519 2.094-1.543 0-3.191-.78-3.191-2.967 0-3.233 2.039-5.491 4.958-5.491 1.36 0 2.33.438 2.747.905zm1.88-10.14l-1.158 6.28c-.721-.393-1.905-.728-3.525-.728-2.206 0-4.414.919-6.058 2.52-1.792 1.744-2.78 4.167-2.78 6.822 0 3.998 2.42 6.481 6.314 6.481 1.339 0 2.718-.553 3.665-1.235l-.22 1.067h3.592l3.922-21.207h-3.751zM138.371 45.833c-1.58 0-2.64 1.25-2.64 2.416 0 1.215.987 2.472 2.64 2.472 1.44 0 2.613-1.109 2.613-2.472 0-1.143-1.073-2.416-2.613-2.416M152.474 33.982c2.596 0 3.88.925 4.973 1.873l.272.235 2.505-2.744-.202-.247c-1.639-2.006-4.084-3.024-7.268-3.024-5.017 0-8.388 2.605-8.388 6.482 0 3.76 3.428 4.772 6.182 5.585 2.364.698 3.8 1.213 3.8 2.49 0 1.45-1.395 2.35-3.64 2.35-2.5 0-4.46-.868-5.824-2.58l-.26-.325-2.719 2.753.168.25c1.67 2.493 4.511 3.81 8.214 3.81 5.01 0 8.248-2.61 8.248-6.65 0-3.814-3.468-4.862-6.254-5.705-2.015-.609-3.756-1.135-3.756-2.455 0-1.893 2.762-2.098 3.95-2.098M169.69 43.263h4.97l-.43 2.446c-1.494 1.033-3.214 1.19-4.12 1.19-3.197 0-5.183-1.954-5.183-5.099 0-4.481 3.122-7.734 7.425-7.734 1.993 0 3.46.59 4.485 1.804l.24.284 2.832-2.423-.135-.26c-1.108-2.126-3.715-3.396-6.973-3.396-7.085 0-12.033 4.937-12.033 12.006 0 5.433 3.493 8.809 9.117 8.809 3.964 0 6.328-1.719 7.761-3.011l.095-.085 1.472-8.354h-8.792l-.73 3.823z"/>
    </g>
</svg>
