<svg xmlns="http://www.w3.org/2000/svg" xmlns:xlink="http://www.w3.org/1999/xlink" width="150" height="47" viewBox="0 0 150 47">
    <defs>
        <path id="prefix__a" d="M0.036 0.077L39.536 0.077 39.536 9.598 0.036 9.598z"/>
    </defs>
    <g fill="none" fill-rule="evenodd">
        <g transform="translate(12.308 .076)">
            <mask id="prefix__b" fill="#fff">
                <use xlink:href="#prefix__a"/>
            </mask>
            <path fill="#FF3C45" d="M37.181 9.598H.365c-.208 0-.364-.191-.322-.395L1.12 4.004C1.592 1.717 3.606.077 5.941.077H38.88c.416 0 .727.383.642.79l-1.698 8.208c-.063.305-.331.523-.643.523" mask="url(#prefix__b)"/>
        </g>
        <path fill="#FF3C45" d="M43.637 23.695l-7.459-8.897c-.352-.42-1.035-.249-1.146.289l-.622 3.006c-.031.152-.166.262-.321.262H2.162c-.155 0-.29.109-.32.261L.006 27.481c-.042.204.113.395.32.395h31.656c.208 0 .364.19.321.394l-.55 2.664c-.119.571.51 1.001 1 .685l10.737-6.951c.331-.214.4-.67.146-.973M16.467 46.076H5.122c-.209 0-.364-.19-.322-.394l1.834-8.865c.032-.152.166-.261.322-.261h15.087c.208 0 .364.19.322.395l-1.076 5.199c-.473 2.286-2.487 3.926-4.822 3.926"/>
        <path fill="#000" d="M66.477 15.069L74.632 15.069 75.236 11.79 67.082 11.79 67.832 7.779 76.571 7.779 77.175 4.5 65.077 4.5 61.973 21.471 65.285 21.471zM79.96 7.218c1.01 0 1.802-.74 1.802-1.686 0-.94-.825-1.733-1.803-1.733-.971 0-1.733.761-1.733 1.733 0 .961.746 1.686 1.733 1.686M78.673 21.471L81.03 8.706 77.881 8.706 75.524 21.471zM89.142 11.518c.811 0 1.36.156 1.675.477.263.267.386.674.377 1.248 0 .518-.062.929-.134 1.364l-1.383 6.864h3.152l1.383-6.916c.098-.588.214-1.43.214-2.107 0-2.579-1.512-4-4.256-4-1.144 0-2.38.385-3.336 1.014l.122-.756h-3.141L81.483 21.47h3.124l1.508-8.113c.771-1.187 1.844-1.84 3.027-1.84M99.051 16.07c0-2.694 1.7-4.576 4.132-4.576 1.134 0 1.942.365 2.29.755l-.83 4.548c-.562.877-1.675 1.746-2.932 1.746-1.286 0-2.66-.65-2.66-2.473m1.983 5.541c1.115 0 2.265-.46 3.053-1.03l-.183.89h2.994L110.166 3.8h-3.126l-.966 5.233c-.6-.328-1.588-.607-2.937-.607-1.838 0-3.678.766-5.049 2.1-1.493 1.454-2.316 3.473-2.316 5.685 0 3.332 2.016 5.401 5.262 5.401M63.486 28.529L72.226 28.529 72.83 25.25 60.731 25.25 57.628 42.221 60.94 42.221 62.131 35.819 70.286 35.819 70.89 32.54 62.737 32.54zM78.254 32.267c1.64 0 2.66 1.002 2.66 2.613 0 2.145-1.481 4.46-3.875 4.46-1.768 0-2.823-1.039-2.823-2.777 0-2.532 2.128-4.296 4.038-4.296m.304-3.092c-4.274 0-7.621 3.481-7.621 7.925 0 3.189 2.32 5.331 5.775 5.331 4.335 0 7.481-3.323 7.481-7.901 0-3.153-2.317-5.355-5.635-5.355M95.376 34.88c0 2.145-1.481 4.46-3.875 4.46-1.767 0-2.823-1.039-2.823-2.777 0-2.532 2.128-4.296 4.039-4.296 1.64 0 2.66 1.001 2.66 2.613m-2.357-5.705c-4.273 0-7.62 3.481-7.62 7.925 0 3.189 2.32 5.331 5.774 5.331 4.335 0 7.481-3.323 7.481-7.901 0-3.153-2.317-5.355-5.635-5.355M109.562 32.999l-.83 4.548c-.562.877-1.675 1.745-2.932 1.745-1.285 0-2.66-.65-2.66-2.472 0-2.695 1.7-4.576 4.132-4.576 1.134 0 1.943.365 2.29.755zm1.567-8.45l-.966 5.233c-.6-.328-1.588-.607-2.937-.607-1.838 0-3.678.766-5.049 2.1-1.493 1.454-2.315 3.473-2.315 5.685 0 3.331 2.016 5.401 5.26 5.401 1.116 0 2.266-.461 3.055-1.03l-.184.89h2.994l3.268-17.672h-3.126zM115.31 38.194c-1.317 0-2.201 1.041-2.201 2.014 0 1.012.823 2.06 2.2 2.06 1.2 0 2.177-.924 2.177-2.06 0-.953-.894-2.014-2.177-2.014M127.062 28.319c2.163 0 3.233.77 4.144 1.56l.227.196 2.087-2.287-.168-.206c-1.366-1.671-3.403-2.52-6.057-2.52-4.18 0-6.99 2.172-6.99 5.402 0 3.134 2.857 3.977 5.152 4.654 1.97.582 3.166 1.012 3.166 2.076 0 1.208-1.162 1.958-3.033 1.958-2.083 0-3.716-.723-4.853-2.15l-.216-.271-2.267 2.294.14.209c1.392 2.076 3.76 3.174 6.845 3.174 4.176 0 6.874-2.175 6.874-5.542 0-3.178-2.89-4.051-5.212-4.753-1.68-.508-3.13-.946-3.13-2.046 0-1.578 2.301-1.748 3.29-1.748M141.409 36.053h4.141l-.359 2.038c-1.245.86-2.678.991-3.433.991-2.664 0-4.32-1.628-4.32-4.248 0-3.735 2.603-6.445 6.189-6.445 1.66 0 2.883.491 3.737 1.503l.2.236 2.36-2.019-.113-.217c-.923-1.771-3.095-2.83-5.81-2.83-5.904 0-10.028 4.115-10.028 10.005 0 4.528 2.911 7.341 7.598 7.341 3.303 0 5.273-1.432 6.468-2.509l.078-.071 1.227-6.961h-7.327l-.608 3.186z"/>
    </g>
</svg>
