<svg xmlns="http://www.w3.org/2000/svg" xmlns:xlink="http://www.w3.org/1999/xlink" width="399" height="362" viewBox="0 0 399 362">
    <defs>
        <path id="prefix__a" d="M13.982 1.86C-.007 6.87-4.476 28.793 7.492 37.88c6.26 4.749 15.58 4.385 21.799-.854 3.85-3.244 6.453-8.11 7.25-13.232 1.017-6.546-1.001-13.508-5.439-17.943-3.145-3.145-7.473-4.9-11.83-4.9-1.784 0-3.574.294-5.29.908z"/>
        <path id="prefix__c" d="M13.982 1.86C-.007 6.87-4.476 28.793 7.492 37.88c6.26 4.749 15.58 4.385 21.799-.854 3.85-3.244 6.453-8.11 7.25-13.232 1.017-6.546-1.001-13.508-5.439-17.943-3.145-3.145-7.473-4.9-11.83-4.9-1.784 0-3.574.294-5.29.908z"/>
        <path id="prefix__e" d="M.425 15.648c-.23 6.296 4.298 12.247 10.593 13.92 3.897 1.033 8.284.503 12.006-1.331 4.758-2.345 8.391-6.876 9.253-11.829.863-4.955-1.16-10.175-5.266-13.079-2.61-1.846-5.703-2.68-8.84-2.68C9.622.646.75 6.841.425 15.647z"/>
        <path id="prefix__g" d="M.425 15.648c-.23 6.296 4.298 12.247 10.593 13.92 3.897 1.033 8.284.503 12.006-1.331 4.758-2.345 8.391-6.876 9.253-11.829.863-4.955-1.16-10.175-5.266-13.079-2.61-1.846-5.703-2.68-8.84-2.68C9.622.646.75 6.841.425 15.647z"/>
        <path id="prefix__i" d="M1.365 0.981L106.201 0.981 106.201 44.892 1.365 44.892z"/>
        <path id="prefix__k" d="M3.481 3.4C.451 6.339.25 11.142 1.024 15.29c1.846 9.897 8 18.748 8.854 28.782.512 6.007-.93 12.026-.738 18.049.057 1.858.384 3.687.94 5.464.155-.073.321-.134.488-.185 4.892-1.482 7.275 5.583 3.268 7.695C18.785 82.21 26.903 87.987 34.491 91.1l.112.077c8.516-7.234 11.842-19.995 7.931-30.471-2.658-7.13-8.158-12.873-11.158-19.863-2.614-6.104-3.203-12.851-4.558-19.353-.21-1.012-.447-2.031-.713-3.042-.11.037-.222.072-.339.104-2.102.57-4.525-.805-5.127-2.897-.565-1.98.599-4.278 2.487-5.052-1.326-2.477-3.023-4.711-5.218-6.484C15.6 2.255 12.516 1.1 9.586 1.1c-2.273 0-4.453.697-6.105 2.302z"/>
        <path id="prefix__m" d="M3.481 3.4C.451 6.339.25 11.142 1.024 15.29c1.846 9.897 8 18.748 8.854 28.782.512 6.007-.93 12.026-.738 18.049.057 1.858.384 3.687.94 5.464.155-.073.321-.134.488-.185 4.892-1.482 7.275 5.583 3.268 7.695C18.785 82.21 26.903 87.987 34.491 91.1l.112.077c8.516-7.234 11.842-19.995 7.931-30.471-2.658-7.13-8.158-12.873-11.158-19.863-2.614-6.104-3.203-12.851-4.558-19.353-.21-1.012-.447-2.031-.713-3.042-.11.037-.222.072-.339.104-2.102.57-4.525-.805-5.127-2.897-.565-1.98.599-4.278 2.487-5.052-1.326-2.477-3.023-4.711-5.218-6.484C15.6 2.255 12.516 1.1 9.586 1.1c-2.273 0-4.453.697-6.105 2.302z"/>
        <path id="prefix__o" d="M3.481 3.4C.451 6.339.25 11.142 1.024 15.29c1.846 9.897 8 18.748 8.854 28.782.512 6.007-.93 12.026-.738 18.049.057 1.858.384 3.687.94 5.464.155-.073.321-.134.488-.185 4.892-1.482 7.275 5.583 3.268 7.695C18.785 82.21 26.903 87.987 34.491 91.1l.112.077c8.516-7.234 11.842-19.995 7.931-30.471-2.658-7.13-8.158-12.873-11.158-19.863-2.614-6.104-3.203-12.851-4.558-19.353-.21-1.012-.447-2.031-.713-3.042-.11.037-.222.072-.339.104-2.102.57-4.525-.805-5.127-2.897-.565-1.98.599-4.278 2.487-5.052-1.326-2.477-3.023-4.711-5.218-6.484C15.6 2.255 12.516 1.1 9.586 1.1c-2.273 0-4.453.697-6.105 2.302z"/>
        <path id="prefix__q" d="M3.481 2.4C.451 5.339.25 10.142 1.024 14.29c1.846 9.897 8 18.748 8.854 28.782.512 6.007-.93 12.026-.738 18.049.057 1.858.384 3.687.94 5.464.155-.073.321-.134.488-.185 4.892-1.482 7.275 5.583 3.268 7.695C18.785 81.21 26.903 86.987 34.491 90.1l.112.077c8.516-7.234 11.842-19.995 7.931-30.471-2.658-7.13-8.158-12.873-11.158-19.863-2.614-6.104-3.203-12.851-4.558-19.353-.21-1.012-.447-2.031-.713-3.042-.11.037-.222.072-.339.104-2.102.57-4.525-.805-5.127-2.897-.565-1.98.599-4.278 2.487-5.052-1.326-2.477-3.023-4.711-5.218-6.484C15.6 1.255 12.516.1 9.586.1c-2.273 0-4.453.697-6.105 2.302z"/>
    </defs>
    <g fill="none" fill-rule="evenodd">
        <path fill="#FF3C45" d="M60.542 131.342c-18.403 12.725-33.428 29.38-43.482 48.045-18.142 33.679-28.73 84.783 4.644 114.366 38.186 33.848 93.782 12.21 139.337 24.666 29.019 7.933 51.542 28.547 79.963 38.005 41.744 13.894 93.286-.92 117.588-33.604 21.82-29.348 21.132-68.828 4.366-100.733-16.767-31.904-47.733-56.809-82.209-74.764-43.743-22.783-94.585-44.187-146.764-41.317-27.282 1.501-52.54 10.884-73.443 25.336" opacity=".06"/>
        <path fill="#FF3C45" d="M284.33 271.833c31.88 13.325 71.075 17.11 94.897-8.72 23.823-25.83 25.28-63.602 8.61-93.418-15.748-28.167-43.484-47.63-60.047-75.324-9.427-15.762-13.479-34.268-22.694-50.154-18.151-31.284-57.18-48.678-90.18-43.225-31.297 5.172-55.285 33.473-80.707 56.991-13.322 12.323-32.986 20.082-49.502 29.098-17.929 9.784-34.576 20.076-46.67 37.318-23.319 33.254-18.849 59.532-1.601 84.71 17.249 25.178 61.763 33.562 96.48 25.796 55.974-12.518 99.588 15.269 151.413 36.928" opacity=".06"/>
        <path fill="#FFF" d="M331.97 200.713c6.26 4.75 15.58 4.385 21.798-.854 3.85-3.245 6.452-8.11 7.25-13.231 1.017-6.546-1.001-13.51-5.439-17.942-4.436-4.434-11.217-6.107-17.12-3.993-13.989 5.012-18.459 26.936-6.49 36.02"/>
        <g transform="translate(324.476 162.833)">
            <mask id="prefix__b" fill="#fff">
                <use xlink:href="#prefix__a"/>
            </mask>
            <path fill="#000" d="M13.612 28.13L2.861 1.686 4.48 1.026 15.23 27.471z" mask="url(#prefix__b)"/>
            <g>
                <mask id="prefix__d" fill="#fff">
                    <use xlink:href="#prefix__c"/>
                </mask>
                <path fill="#000" d="M17.119 23.15L16.431 21.543 47.862 8.061 48.551 9.669z" mask="url(#prefix__d)"/>
            </g>
        </g>
        <g>
            <path fill="#000" d="M1.732 117.256L0.117 116.586 48.161 0.519 49.777 1.188z" transform="translate(300.7 164.233)"/>
            <path fill="#FFF" d="M47.977 56.247c-.232 6.296 4.297 12.247 10.592 13.919 3.896 1.036 8.284.505 12.005-1.329 4.76-2.345 8.392-6.874 9.255-11.827.864-4.955-1.16-10.177-5.263-13.08-9.722-6.879-26.145.277-26.589 12.317" transform="translate(300.7 164.233)"/>
        </g>
        <g transform="translate(348.252 204.833)">
            <mask id="prefix__f" fill="#fff">
                <use xlink:href="#prefix__e"/>
            </mask>
            <path fill="#000" d="M32.927 27.059L11.808 17.823 12.509 16.22 33.627 25.454z" mask="url(#prefix__f)"/>
            <g>
                <mask id="prefix__h" fill="#fff">
                    <use xlink:href="#prefix__g"/>
                </mask>
                <path fill="#000" d="M5.148 19.748L4.944 -1.808 6.692 -1.824 6.896 19.73z" mask="url(#prefix__h)"/>
            </g>
        </g>
        <path fill="#000" d="M320.16 238.855L319.509 237.233 379.278 213.176 379.93 214.799z"/>
        <path fill="#FF3C45" d="M205.563 186.726L310.399 186.726 310.399 114.726 205.563 114.726z"/>
        <g transform="translate(204.197 141.833)">
            <mask id="prefix__j" fill="#fff">
                <use xlink:href="#prefix__i"/>
            </mask>
            <path fill="#FFF" d="M84.31 13.457c-7.67 4.169-14.78 9.378-21.042 15.49C48.76 43.1 38.972 61.916 35.703 81.926c-.795 4.866-1.473 11.212.359 17.165 1.82 5.915 6.057 10.406 11.06 11.72 11.362 2.987 20.925-10.144 23.585-14.24 12.228-18.823 18.647-41.55 18.078-63.996-.227-8.934-2.112-15.003-4.474-19.12m-33.789 99.549c-1.292 0-2.573-.167-3.845-.501-5.581-1.467-10.29-6.41-12.285-12.897-1.94-6.3-1.24-12.91-.414-17.96 3.33-20.38 13.298-39.54 28.069-53.954 6.352-6.198 13.559-11.485 21.337-15.723-2.193-3.231-4.645-5.01-6.523-5.975-6.844-3.52-15.81-2.208-26.654 3.903-15.284 8.611-28.516 21.315-38.268 36.734-9.753 15.42-15.561 32.828-16.8 50.34l-1.744-.124C-5.346 79.049.555 61.36 10.46 45.696c9.906-15.663 23.355-28.57 38.89-37.324C60.736 1.956 70.262.632 77.658 4.438c2.427 1.247 5.069 3.3 7.327 6.678C94.858 5.97 105.598 2.502 116.644.98l.238 1.733C106.077 4.201 95.57 7.588 85.91 12.607c2.52 4.424 4.391 10.784 4.623 19.925.578 22.794-5.942 45.878-18.36 64.993-2.26 3.478-5.984 8.336-10.894 11.73-3.614 2.496-7.218 3.75-10.757 3.75" mask="url(#prefix__j)"/>
        </g>
        <g>
            <path fill="#FFF" d="M128.639 83.184L233.476 83.184 233.476 68.709 128.639 68.709z" transform="translate(76.924 43.833)"/>
            <path fill="#FF3C45" d="M278.983 237.32s-14.694-80.007-66.361-80.007c-51.669 0-66.671 80.007-66.671 80.007" transform="translate(76.924 43.833)"/>
            <path fill="#EC9196" d="M36.698 107.069c-3.488-.999-5.56 5.091-6.647 10.007l-5.9-8.096-19.643 13.108 6.08 20.515 26.347-16.084s6.4-17.553-.237-19.45" transform="translate(76.924 43.833)"/>
            <path fill="#FFF" d="M188.235 146.663L188.235 188.986 174.589 204.069 144.502 237.32 82.527 237.32 85.026 179.43z" transform="translate(76.924 43.833)"/>
            <path fill="#FFB6BA" d="M154.414 124.709L150.217 141.342 108.129 138.703 113.161 125.802 116.712 95.579 145.82 76.563z" transform="translate(76.924 43.833)"/>
            <path fill="#000" d="M133.646 95.474c-3.308 8.914-10.551 16.162-19.26 19.898l2.22-18.88 8.682-5.708c2.802 1.568 5.496 3.115 8.358 4.69" transform="translate(76.924 43.833)"/>
            <path fill="#FFB6BA" d="M149.653 61.511l-.678 1.786-12.656 33.52s-17.097 17.646-34.734 2.15c-9.785-8.617-12.598-31.47-7.737-49.381.156-.573.316-1.134.485-1.693l.075-.249c.033-.11.068-.227.105-.341.018-.052.034-.111.052-.168.211-.645.43-1.287.666-1.918.155-.457.32-.894.502-1.33.22-.573.461-1.139.703-1.693 2.586-5.897 6.212-10.754 10.916-13.632 1.068-.654 2.186-1.216 3.37-1.65.542-.208 1.096-.386 1.663-.537.451-.127.917-.233 1.383-.323 1.226-.235 2.494-.358 3.818-.357.12.004.245-.002.37.004 11.293.08 18.557 4.672 23.236 10.518 5.911 7.38 7.688 16.785 8.228 21.796.018.18.039.352.054.523l.024.246.033.49c.034.462.06.864.082 1.195.029.456.036.778.042.934 0 .074-.002.11-.002.11" transform="translate(76.924 43.833)"/>
            <path fill="#000" d="M110.002 80.134c-1.056 0-2.071-.446-2.787-1.221-.717-.776-1.082-1.826-.998-2.879l1.063-13.437 1.743.137-1.062 13.438c-.046.578.146 1.13.537 1.554.392.424.926.658 1.504.658h.001v1.75h-.001zM118.168 63.953c.002 1.02.592 1.846 1.32 1.846.728 0 1.318-.827 1.317-1.848 0-1.019-.59-1.846-1.32-1.846-.727.001-1.317.827-1.317 1.848M98.137 63.96c0 1.02.59 1.846 1.318 1.846.728 0 1.318-.827 1.317-1.846 0-1.02-.59-1.848-1.319-1.847-.727 0-1.317.826-1.316 1.847M122.71 55.316c.567.146 1.138.325 1.591.615.452.291.768.711.692 1.099-.125.643-1.184.907-2.125.984-2.019.164-4.171-.067-6.149-.66-.699-.21-1.454-.526-1.672-1.02-.51-1.15 1.618-1.503 2.485-1.557 1.687-.102 3.519.117 5.178.54M101.657 54.768c.507.046 1.022.123 1.446.32.425.194.745.527.723.89-.04.599-.927.998-1.734 1.208-1.73.45-3.62.564-5.4.322-.63-.085-1.316-.26-1.561-.672-.568-.965 1.236-1.603 1.982-1.78 1.45-.347 3.061-.424 4.544-.288" transform="translate(76.924 43.833)"/>
            <path fill="#FFF" d="M223.014 210.014L117.99 173.421s-12.548 44.538-35.266 59.245c-2.642 1.715-5.426 3.021-8.34 3.808-2.04.55-4.145.847-6.313.847-22.627 0-46.08-45.157-57.815-71.438-4.814-10.79-7.658-18.4-7.658-18.4l38.466-23.485 8.408 13.16 15.326 23.98s12.276-22.668 19.64-29.22c7.365-6.555 28.37-6.009 28.37-6.009 6.273 23.485 41.739-1.092 41.739-1.092s26.223-1.91 34.642 1.365c9.823 3.822 43.237 59.234 33.826 83.832" transform="translate(76.924 43.833)"/>
            <path fill="#E7E7E7" d="M174.589 204.068L144.502 237.32 133.232 237.32 120.718 191.855 162.729 176.017 168.456 158.815z" transform="translate(76.924 43.833)"/>
            <path fill="#FFB6BA" d="M113.834 209.374c-6.158 1.769-10.18.369-10.633-2.944-.372-2.717 9.123-4.872 17.445-5.48 5.597-.41 11.904-1.763 11.904-1.763" transform="translate(76.924 43.833)"/>
            <path fill="#FFB6BA" d="M132.55 199.186l11.023 30.42s-34.681 6.918-37.799 3.688c-1.866-1.934-.362-3.425-.362-3.425s-3.427 1.124-4.94-.405c-1.513-1.53-.362-3.426-.362-3.426s-3.1.536-3.355-2.35c-.279-3.155 8.268-9.08 17.08-14.314" transform="translate(76.924 43.833)"/>
            <path fill="#000" d="M100.698 226.685l-1.179-1.294c.208-.19 5.158-4.676 12.817-8.08l.71 1.598c-7.403 3.291-12.299 7.73-12.348 7.776M105.88 230.607l-.937-1.477c.22-.14 5.46-3.462 10.798-5.722l.682 1.613c-5.202 2.2-10.49 5.554-10.543 5.586M119.247.966c4.9-1.085 10.365 1.251 12.97 5.545 2.604 4.294 2.153 10.227-1.07 14.077-3.223 3.85-8.978 5.333-13.658 3.518-10.938-4.242-9.696-20.602 1.758-23.14" transform="translate(76.924 43.833)"/>
            <path fill="#FFF" d="M223.014 210.014c-6.48 17.528-38.587 23.807-60.752 26.054-12.36 1.253-21.628 1.253-21.628 1.253l-12.004-43.145 16.093-5.848 23.734-8.624v-21.028l54.557 51.338z" transform="translate(76.924 43.833)"/>
            <path fill="#E7E7E7" d="M84.983 179.43l-2.259 53.237c-2.643 1.715-5.425 3.02-8.338 3.806l10.597-57.043z" transform="translate(76.924 43.833)"/>
            <path fill="#FF3C45" d="M70.864 96.67c-10.037 12.82-28.556 15.065-41.362 5.017-12.805-10.046-15.052-28.583-5.014-41.402 10.038-12.82 28.557-15.065 41.362-5.019 12.806 10.048 15.052 28.585 5.014 41.404" transform="translate(76.924 43.833)"/>
            <path fill="#FF3C45" d="M3.204 135.224c-3.042-2.387-3.48-6.83-.962-9.768l35.39-41.283 6.87 5.39-31.593 44.264c-2.246 3.148-6.661 3.784-9.705 1.397" transform="translate(76.924 43.833)"/>
            <path fill="#E7E7E7" d="M65.066 92.12c-1.263 1.615-2.707 3.005-4.28 4.164-3.145 2.323-6.803 3.727-10.574 4.164-5.576.646-11.4-.82-16.168-4.563-2.213-1.736-4.004-3.808-5.358-6.091-2.84-4.772-3.768-10.456-2.64-15.854.672-3.221 2.075-6.342 4.24-9.106 4.78-6.108 12.13-9.017 19.315-8.394 2.124.185 4.236.679 6.26 1.485 1.752.702 3.44 1.641 5.02 2.817l.426.328c.88.69 1.694 1.436 2.44 2.224 7.396 7.826 8.157 20.095 1.32 28.826" transform="translate(76.924 43.833)"/>
            <path fill="#FFF" d="M60.88 60.742l-10.668 39.705c-5.577.647-11.4-.82-16.167-4.56-2.214-1.738-4.005-3.81-5.36-6.094l27.176-31.868c1.752.702 3.44 1.641 5.02 2.817M65.066 92.12c-1.263 1.615-2.707 3.005-4.28 4.164l2.962-32.99c7.395 7.826 8.156 20.095 1.318 28.826M49.601 56.44l-23.555 17.5c.673-3.221 2.076-6.342 4.24-9.105 4.78-6.109 12.13-9.018 19.315-8.395" transform="translate(76.924 43.833)"/>
            <path fill="#FFB6BA" d="M26.874 124.645s1.324 1.604-.687 3.311c-1.966 1.674-19.507-1.67-21.632-4.712-2.985-4.275 9.1-19.855 16.08-19.44 5.548.33 15.878 12.594 15.298 15.648-.532 2.792-3.505 1.966-3.505 1.966s.938 1.967-.688 3.311c-1.628 1.351-4.866-.084-4.866-.084" transform="translate(76.924 43.833)"/>
            <path fill="#000" d="M31.776 122.004c-.043-.049-4.407-4.867-11.304-8.792l.865-1.521c7.155 4.072 11.556 8.94 11.741 9.144l-1.302 1.17zM26.334 125.334c-.047-.038-4.886-3.826-9.753-6.48l.837-1.538c4.998 2.728 9.795 6.484 9.996 6.642l-1.08 1.376z" transform="translate(76.924 43.833)"/>
            <path fill="#FFF5EC" d="M97.53 61.659c-3.955 0-7.171 3.221-7.171 7.18 0 3.96 3.216 7.181 7.172 7.181 3.955 0 7.173-3.221 7.173-7.18 0-3.96-3.218-7.181-7.173-7.181m0 16.111c-4.92 0-8.92-4.007-8.92-8.93 0-4.926 4-8.931 8.92-8.931s8.921 4.005 8.921 8.93c0 4.924-4.001 8.931-8.921 8.931M117.717 61.659c-3.955 0-7.173 3.221-7.173 7.18 0 3.96 3.218 7.181 7.173 7.181 3.956 0 7.174-3.221 7.174-7.18 0-3.96-3.218-7.181-7.174-7.181m0 16.111c-4.918 0-8.921-4.007-8.921-8.93 0-4.926 4.003-8.931 8.921-8.931 4.92 0 8.922 4.005 8.922 8.93 0 4.924-4.001 8.931-8.922 8.931" transform="translate(76.924 43.833)"/>
            <path fill="#FFF5EC" d="M105.578 69.577L109.67 69.577 109.67 67.827 105.578 67.827zM126.202 69.461L125.328 67.944 146.606 55.657 147.48 57.173z" transform="translate(76.924 43.833)"/>
            <path fill="#000" d="M149.42 58.013c-7.782.222-15.648-2.175-21.914-6.823-6.319-4.692-10.906-11.628-12.924-19.237-4.778 7.116-11.946 12.625-20.069 15.35.018-.052.034-.111.052-.168.211-.645.43-1.287.666-1.918.155-.457.32-.894.502-1.33.22-.573.461-1.139.703-1.693 2.586-5.897 6.212-10.754 10.916-13.632 1.068-.654 2.186-1.216 3.37-1.65.542-.208 1.096-.386 1.663-.537.451-.127.917-.233 1.383-.323 1.226-.235 2.494-.358 3.818-.357.12.004.245-.002.37.004 11.293.08 18.557 4.672 23.236 10.518 5.911 7.38 7.688 16.785 8.228 21.796" transform="translate(76.924 43.833)"/>
            <path fill="#FFB6BA" d="M142.4 60.324c1.245-2.016 3.734-3.086 6.096-2.923 2.362.16 4.563 1.432 6.163 3.178 3.658 3.991 4.047 10.59.884 14.984-3.16 4.393-9.537 6.115-14.475 3.909" transform="translate(76.924 43.833)"/>
            <path fill="#000" d="M149.995 73.099l-1.743-.126c.203-2.848-.855-5.775-2.834-7.832l.65-1.482 5.275.13-.044 1.75-3.384-.084c1.509 2.223 2.273 4.963 2.08 7.644M110.673 84.787l-.116-1.747c1.239-.082 2.15-.363 2.786-.86.654-.511 1.068-1.31 1.107-2.14l1.746.082c-.063 1.333-.726 2.618-1.778 3.438-.92.72-2.147 1.12-3.745 1.227" transform="translate(76.924 43.833)"/>
        </g>
        <path fill="#000" d="M205.495 191.898c-6.057 0-11.856-1.749-16.27-5.03-6.686-4.97-10.008-13.599-8.078-20.986l1.692.443c-1.755 6.715 1.3 14.584 7.428 19.137 5.554 4.13 13.493 5.653 21.234 4.08 6.692-1.36 13.326-4.849 19.72-10.363 5.543-4.785 10.209-10.423 15.301-16.764l1.364 1.098c-5.147 6.408-9.868 12.11-15.525 16.99-6.62 5.714-13.523 9.333-20.512 10.754-2.117.43-4.251.64-6.354.64"/>
        <g>
            <path fill="#FFF" d="M94.227 110.558L55.01 139.283c-4.814-10.79-7.657-18.4-7.657-18.4l38.465-23.485 8.409 13.16zM207.018 209.469c-12.361 1.253-21.63 1.253-21.63 1.253l-12.004-43.145 16.095-5.85 17.539 47.742z" transform="translate(32.169 70.433)"/>
            <path fill="#000" d="M58.566 124.033c-1.06 0-1.923.864-1.923 1.925s.863 1.925 1.923 1.925 1.924-.864 1.924-1.925c0-1.06-.863-1.925-1.924-1.925m0 5.6c-2.023 0-3.67-1.649-3.67-3.675s1.647-3.675 3.67-3.675c2.024 0 3.672 1.65 3.672 3.675 0 2.026-1.648 3.675-3.672 3.675M192.483 197.533c-1.06 0-1.924.864-1.924 1.925s.863 1.925 1.924 1.925c1.06 0 1.923-.864 1.923-1.925 0-1.06-.863-1.925-1.923-1.925m0 5.6c-2.024 0-3.672-1.649-3.672-3.675s1.648-3.675 3.672-3.675c2.023 0 3.67 1.65 3.67 3.675 0 2.026-1.647 3.675-3.67 3.675" transform="translate(32.169 70.433)"/>
            <path fill="#FF3C45" d="M15.476 210.346c-6.168-9.115-11.565-16.595-13.907-27.351-2.343-10.758-1.368-22.566 4.48-31.89 5.844-9.328 17.057-15.566 27.917-13.82 9.582 1.541 17.463 8.825 22.175 17.32 4.711 8.492 6.752 18.167 8.731 27.679 3.75-8.535 13.186-14.112 22.485-13.57 9.297.544 17.91 7.01 21.314 15.688s1.581 19.114-4.33 26.318" transform="translate(32.169 70.433)"/>
            <path fill="#000" d="M207.436 211.275c-5.173-6.303-6.63-15.179-3.715-22.612 2.986-7.613 10.368-13.042 18.368-13.51 7.214-.424 14.52 3.488 18.261 9.527 1.495-7.072 3.218-14.267 6.806-20.734 4.461-8.041 11.541-13.552 18.941-14.742 8.842-1.422 18.687 3.435 23.937 11.812 4.572 7.291 5.961 17.13 3.813 26.99-1.855 8.516-5.956 14.555-10.704 21.55l-.912 1.346-1.449-.981.916-1.348c4.645-6.843 8.66-12.756 10.441-20.939 2.052-9.417.745-18.78-3.586-25.687-4.888-7.8-14.01-12.33-22.178-11.015-6.874 1.105-13.488 6.289-17.69 13.866-3.862 6.956-5.518 14.917-7.12 22.614l-1.655.173c-2.91-6.62-10.356-11.114-17.72-10.684-7.216.421-14.143 5.521-16.841 12.402-2.648 6.747-1.265 15.13 3.438 20.862l-1.351 1.11zM222.957 18.875c3.268.351 5.969-.789 7.6-3.21 1.789-2.652 1.979-6.331.471-9.154-1.366-2.563-3.917-3.972-7.186-3.972h-.043c-4.125.016-7.929 3.646-8.142 7.77-.212 4.122 3.198 8.125 7.3 8.566m1.163 1.814c-.439 0-.89-.025-1.35-.074-4.975-.535-9.115-5.393-8.86-10.398.26-5.002 4.878-9.408 9.882-9.428h.051c3.945 0 7.042 1.738 8.728 4.898 1.803 3.378 1.576 7.782-.565 10.959-1.778 2.635-4.544 4.043-7.886 4.043" transform="translate(32.169 70.433)"/>
            <path fill="#FFF" d="M27.075 211.212l-1.445-.984c.134-.198 3.34-4.88 8.564-9.57 6.977-6.27 14.208-9.469 20.928-9.24 9.091.307 17.328 6.65 24.48 18.859l-1.508.886c-6.83-11.656-14.577-17.711-23.03-17.994-.209-.009-.416-.011-.624-.011-14.92 0-27.24 17.87-27.365 18.054M16.633 171.693c4.948 7.118 13.069 12.894 20.656 16.008l.112.077c8.515-7.234 11.839-19.995 7.931-30.47-2.658-7.131-8.158-12.874-11.158-19.864-2.614-6.104-3.204-12.852-4.56-19.352-.208-1.013-.445-2.032-.712-3.043-.11.037-.223.072-.339.104-2.102.57-4.526-.805-5.127-2.897-.565-1.98.598-4.278 2.488-5.052-1.327-2.478-3.024-4.711-5.22-6.484-4.099-3.31-10.644-4.391-14.426-.72-3.028 2.938-3.232 7.741-2.458 11.89 1.847 9.9 8.002 18.748 8.856 28.782.51 6.008-.93 12.026-.738 18.05.056 1.857.383 3.685.938 5.465.157-.075.322-.136.488-.187 4.893-1.484 7.276 5.584 3.269 7.693" transform="translate(32.169 70.433)"/>
            <path fill="#000" d="M43.709 210.98L14.964 118.291 16.635 117.773 45.379 210.462z" transform="translate(32.169 70.433)"/>
        </g>
        <g transform="translate(34.966 167.033)">
            <mask id="prefix__l" fill="#fff">
                <use xlink:href="#prefix__k"/>
            </mask>
            <path fill="#000" d="M20.956 49.634L0.48 30.672 1.668 29.387 22.143 48.35z" mask="url(#prefix__l)"/>
            <mask id="prefix__n" fill="#fff">
                <use xlink:href="#prefix__m"/>
            </mask>
            <path fill="#000" d="M28.07 67.652L26.42 67.071 36.644 37.975 38.294 38.554z" mask="url(#prefix__n)"/>
            <g>
                <mask id="prefix__p" fill="#fff">
                    <use xlink:href="#prefix__o"/>
                </mask>
                <path fill="#000" d="M18.758 37.719L17.064 37.282 25.032 6.37 26.726 6.807z" mask="url(#prefix__p)"/>
            </g>
            <g transform="translate(0 1)">
                <mask id="prefix__r" fill="#fff">
                    <use xlink:href="#prefix__q"/>
                </mask>
                <path fill="#000" d="M28.766 73.86L5.897 57.327 6.921 55.909 29.788 72.44z" mask="url(#prefix__r)"/>
            </g>
        </g>
    </g>
</svg>
