<svg xmlns="http://www.w3.org/2000/svg" width="13" height="22" viewBox="0 0 13 22">
    <path fill="none" fill-rule="evenodd" stroke="#FF3C45" stroke-width="2" d="M7.778 20.334H4.682c-.517 0-.938-.421-.938-.938v-6.984H1.938c-.517 0-.938-.42-.938-.937V8.482c0-.517.42-.938.938-.938h1.806V6.046c0-1.486.467-2.75 1.35-3.656C5.98 1.48 7.218 1 8.675 1l2.361.004c.516 0 .936.421.936.938V4.72c0 .517-.42.938-.937.938h-1.59c-.485 0-.608.098-.635.128-.043.049-.095.189-.095.574v1.184h2.2c.166 0 .327.041.464.118.298.166.483.48.483.82l-.001 2.993c0 .517-.421.937-.938.937H8.716v6.984c0 .517-.42.938-.938.938z"/>
</svg>
