<svg xmlns="http://www.w3.org/2000/svg" width="18" height="19" viewBox="0 0 18 19">
    <g fill="none" fill-rule="evenodd">
        <path fill="#FF3C45" d="M18.377 5.628C16.685 3.934 14.435 3.001 12.037 3c-4.94 0-8.96 4.02-8.962 8.962 0 1.58.412 3.121 1.197 4.48L3 21.087l4.751-1.247c1.31.714 2.783 1.09 4.283 1.091h.004c4.94 0 8.96-4.02 8.962-8.962.001-2.395-.93-4.647-2.623-6.34zm-6.34 13.79h-.002c-1.337-.001-2.648-.36-3.792-1.039l-.272-.161-2.82.74.753-2.75-.177-.281c-.745-1.186-1.14-2.557-1.139-3.965.002-4.107 3.344-7.448 7.453-7.448 1.99 0 3.86.776 5.266 2.184 1.406 1.408 2.18 3.28 2.18 5.27-.002 4.108-3.343 7.45-7.45 7.45zm4.087-5.58c-.224-.112-1.325-.653-1.53-.728-.206-.075-.355-.112-.504.112-.15.224-.579.729-.71.878-.13.15-.26.168-.485.056-.224-.112-.945-.349-1.8-1.112-.666-.593-1.116-1.327-1.246-1.55-.13-.225-.001-.334.098-.458.242-.3.485-.616.56-.766.074-.15.037-.28-.019-.392-.056-.112-.504-1.214-.69-1.663-.182-.436-.367-.377-.504-.384-.13-.007-.28-.008-.43-.008-.149 0-.391.056-.597.28-.205.224-.783.766-.783 1.868 0 1.103.802 2.167.914 2.317.112.15 1.58 2.411 3.826 3.381.534.231.95.369 1.276.472.537.17 1.025.146 1.41.089.431-.065 1.325-.542 1.512-1.065.187-.523.187-.972.13-1.065-.055-.093-.204-.15-.428-.262z" transform="translate(-3 -3)"/>
    </g>
</svg>
