<svg xmlns="http://www.w3.org/2000/svg" width="24" height="24" viewBox="0 0 24 24">
    <g fill="none" fill-rule="evenodd">
        <path fill="#333" d="M10.049 19h4.967c.086-2.733.526-5.223 1.216-7.12.177-.486.374-.945.593-1.365-3.663 1.225-6.381 4.513-6.776 8.485zM20 8C13.373 8 8 13.373 8 20s5.373 12 12 12 12-5.373 12-12S26.627 8 20 8zm0 2c-.151 0-.424.081-.799.516-.371.432-.751 1.116-1.09 2.047-.597 1.644-1.008 3.893-1.094 6.437h5.966c-.086-2.544-.497-4.793-1.094-6.437-.339-.931-.719-1.615-1.09-2.047-.375-.435-.648-.516-.799-.516zm4.984 9c-.087-2.733-.526-5.223-1.216-7.12-.177-.486-.374-.945-.593-1.365 3.663 1.225 6.381 4.513 6.776 8.485h-4.967zm-2.001 2h-5.966c.086 2.544.497 4.793 1.094 6.437.339.931.719 1.615 1.09 2.047.375.435.648.516.799.516.151 0 .424-.081.799-.516.371-.432.751-1.116 1.09-2.047.597-1.644 1.008-3.893 1.094-6.437zm.192 8.485c.219-.42.416-.879.593-1.365.69-1.897 1.129-4.387 1.216-7.12h4.967c-.395 3.972-3.113 7.26-6.776 8.485zm-6.35 0c-.219-.42-.416-.879-.593-1.365-.69-1.897-1.13-4.387-1.216-7.12h-4.967c.395 3.972 3.113 7.26 6.776 8.485z" opacity=".7" transform="translate(-8 -8)"/>
    </g>
</svg>
