<svg xmlns="http://www.w3.org/2000/svg" width="22" height="23" viewBox="0 0 22 23">
    <g fill="none" fill-rule="evenodd">
        <path fill="#333" fill-opacity=".7" d="M27.795 12.212c-2.068-2.07-4.819-3.21-7.749-3.212-6.038 0-10.952 4.914-10.954 10.953 0 1.93.503 3.815 1.462 5.477L9 31.106l5.807-1.524c1.6.873 3.401 1.333 5.235 1.334h.004c6.037 0 10.952-4.914 10.954-10.954.001-2.927-1.137-5.68-3.205-7.75zm-7.749 16.854h-.004c-1.633 0-3.236-.44-4.634-1.27l-.332-.197-3.446.904.92-3.36-.217-.344c-.911-1.45-1.392-3.125-1.392-4.845.002-5.02 4.087-9.104 9.109-9.104 2.432 0 4.717.949 6.436 2.67 1.72 1.721 2.665 4.008 2.665 6.441-.002 5.02-4.087 9.105-9.105 9.105zm4.994-6.819c-.274-.137-1.62-.799-1.87-.89-.25-.092-.434-.137-.616.137-.182.273-.707.89-.867 1.073-.16.182-.319.205-.593.068-.273-.137-1.155-.426-2.2-1.358-.814-.726-1.364-1.622-1.523-1.896-.16-.274-.002-.408.12-.559.296-.368.593-.754.684-.936.091-.183.046-.343-.023-.48-.068-.137-.616-1.484-.844-2.032-.222-.534-.447-.461-.616-.47-.159-.008-.342-.01-.524-.01-.183 0-.48.07-.73.343-.25.274-.958.936-.958 2.283 0 1.348.98 2.65 1.118 2.832.136.183 1.93 2.947 4.675 4.133.653.282 1.163.45 1.56.576.656.209 1.253.18 1.725.109.525-.079 1.619-.662 1.847-1.302.228-.64.228-1.187.16-1.301-.069-.115-.251-.183-.525-.32z" transform="translate(-9 -9)"/>
    </g>
</svg>
