<svg xmlns="http://www.w3.org/2000/svg" xmlns:xlink="http://www.w3.org/1999/xlink" width="20" height="17" viewBox="0 0 20 17">
    <defs>
        <path id="prefix__a" d="M0 0L20 0 20 16.19 0 16.19z"/>
    </defs>
    <g fill="none" fill-rule="evenodd">
        <mask id="prefix__b" fill="#fff">
            <use xlink:href="#prefix__a"/>
        </mask>
        <path fill="#FF3C45" d="M20 1.917c-.744.325-1.536.54-2.362.645.85-.506 1.498-1.3 1.803-2.258-.792.47-1.667.803-2.6.989C16.09.494 15.016 0 13.846 0 11.576 0 9.75 1.836 9.75 4.086c0 .324.027.635.095.932-3.41-.166-6.425-1.794-8.452-4.273-.353.611-.56 1.311-.56 2.065 0 1.414.73 2.669 1.82 3.395C1.995 6.192 1.348 6.002.8 5.7v.045C.8 7.732 2.22 9.381 4.085 9.76c-.334.091-.698.135-1.075.135-.262 0-.527-.015-.776-.07.531 1.618 2.038 2.807 3.831 2.846C4.67 13.758 2.9 14.413.981 14.413c-.336 0-.659-.015-.981-.056 1.816 1.167 3.969 1.833 6.29 1.833 7.545 0 11.67-6.227 11.67-11.624 0-.18-.006-.355-.015-.528.814-.576 1.498-1.294 2.055-2.121z" mask="url(#prefix__b)"/>
    </g>
</svg>
