<svg xmlns="http://www.w3.org/2000/svg" width="80" height="80" viewBox="0 0 80 80">
    <g fill="none" fill-rule="evenodd">
        <circle cx="40" cy="40" r="40" fill="#FF3C45"/>
        <path fill="#FFF" fill-rule="nonzero" d="M43.025 44.936c0-3.802 7.343-5.813 7.343-12.325 0-2.667-.962-4.765-2.928-6.294C45.516 24.787 43.244 24 40.577 24c-4.72 0-8.829 2.448-10.577 6.775l5.158 2.972c1.005-2.579 2.753-3.89 5.2-3.89 2.492 0 3.978 1.136 3.978 3.19 0 1.924-1.88 3.978-3.671 5.42-1.792 1.4-3.672 3.89-3.672 6.47h6.032zm-.393 9.747c1.442-1.442 1.442-3.802 0-5.245-1.443-1.442-3.803-1.442-5.245 0-1.443 1.443-1.443 3.803 0 5.245 1.442 1.442 3.802 1.442 5.245 0z"/>
    </g>
</svg>
