<svg xmlns="http://www.w3.org/2000/svg" width="98" height="253" viewBox="0 0 98 253">
    <g fill="#E6D3C2" fill-rule="evenodd">
        <circle cx="95.5" cy="2.5" r="2.5" transform="rotate(90 95.5 2.5)"/>
        <circle cx="95.5" cy="33.5" r="2.5" transform="rotate(90 95.5 33.5)"/>
        <circle cx="95.5" cy="64.5" r="2.5" transform="rotate(90 95.5 64.5)"/>
        <circle cx="95.5" cy="95.5" r="2.5" transform="rotate(90 95.5 95.5)"/>
        <circle cx="95.5" cy="126.5" r="2.5" transform="rotate(90 95.5 126.5)"/>
        <circle cx="95.5" cy="157.5" r="2.5" transform="rotate(90 95.5 157.5)"/>
        <circle cx="95.5" cy="188.5" r="2.5" transform="rotate(90 95.5 188.5)"/>
        <circle cx="95.5" cy="219.5" r="2.5" transform="rotate(90 95.5 219.5)"/>
        <circle cx="95.5" cy="250.5" r="2.5" transform="rotate(90 95.5 250.5)"/>
        <circle cx="64.5" cy="2.5" r="2.5" transform="rotate(90 64.5 2.5)"/>
        <circle cx="64.5" cy="33.5" r="2.5" transform="rotate(90 64.5 33.5)"/>
        <circle cx="64.5" cy="64.5" r="2.5" transform="rotate(90 64.5 64.5)"/>
        <circle cx="64.5" cy="95.5" r="2.5" transform="rotate(90 64.5 95.5)"/>
        <circle cx="64.5" cy="126.5" r="2.5" transform="rotate(90 64.5 126.5)"/>
        <circle cx="64.5" cy="157.5" r="2.5" transform="rotate(90 64.5 157.5)"/>
        <circle cx="64.5" cy="188.5" r="2.5" transform="rotate(90 64.5 188.5)"/>
        <circle cx="64.5" cy="219.5" r="2.5" transform="rotate(90 64.5 219.5)"/>
        <circle cx="64.5" cy="250.5" r="2.5" transform="rotate(90 64.5 250.5)"/>
        <circle cx="33.5" cy="2.5" r="2.5" transform="rotate(90 33.5 2.5)"/>
        <circle cx="33.5" cy="33.5" r="2.5" transform="rotate(90 33.5 33.5)"/>
        <circle cx="33.5" cy="64.5" r="2.5" transform="rotate(90 33.5 64.5)"/>
        <circle cx="33.5" cy="95.5" r="2.5" transform="rotate(90 33.5 95.5)"/>
        <circle cx="33.5" cy="126.5" r="2.5" transform="rotate(90 33.5 126.5)"/>
        <circle cx="33.5" cy="157.5" r="2.5" transform="rotate(90 33.5 157.5)"/>
        <circle cx="33.5" cy="188.5" r="2.5" transform="rotate(90 33.5 188.5)"/>
        <circle cx="33.5" cy="219.5" r="2.5" transform="rotate(90 33.5 219.5)"/>
        <circle cx="33.5" cy="250.5" r="2.5" transform="rotate(90 33.5 250.5)"/>
        <circle cx="2.5" cy="2.5" r="2.5" transform="rotate(90 2.5 2.5)"/>
        <circle cx="2.5" cy="33.5" r="2.5" transform="rotate(90 2.5 33.5)"/>
        <circle cx="2.5" cy="64.5" r="2.5" transform="rotate(90 2.5 64.5)"/>
        <circle cx="2.5" cy="95.5" r="2.5" transform="rotate(90 2.5 95.5)"/>
        <circle cx="2.5" cy="126.5" r="2.5" transform="rotate(90 2.5 126.5)"/>
        <circle cx="2.5" cy="157.5" r="2.5" transform="rotate(90 2.5 157.5)"/>
        <circle cx="2.5" cy="188.5" r="2.5" transform="rotate(90 2.5 188.5)"/>
        <circle cx="2.5" cy="219.5" r="2.5" transform="rotate(90 2.5 219.5)"/>
        <circle cx="2.5" cy="250.5" r="2.5" transform="rotate(90 2.5 250.5)"/>
    </g>
</svg>
