<svg xmlns="http://www.w3.org/2000/svg" width="315" height="129" viewBox="0 0 315 129">
    <g fill="#E6D3C2" fill-rule="evenodd" transform="translate(-31)">
        <circle cx="33.5" cy="2.5" r="2.5"/>
        <circle cx="64.5" cy="2.5" r="2.5"/>
        <circle cx="95.5" cy="2.5" r="2.5"/>
        <circle cx="126.5" cy="2.5" r="2.5"/>
        <circle cx="157.5" cy="2.5" r="2.5"/>
        <circle cx="188.5" cy="2.5" r="2.5"/>
        <circle cx="219.5" cy="2.5" r="2.5"/>
        <circle cx="250.5" cy="2.5" r="2.5"/>
        <circle cx="281.5" cy="2.5" r="2.5"/>
        <circle cx="312.5" cy="2.5" r="2.5"/>
        <circle cx="343.5" cy="2.5" r="2.5"/>
        <circle cx="33.5" cy="33.5" r="2.5"/>
        <circle cx="64.5" cy="33.5" r="2.5"/>
        <circle cx="95.5" cy="33.5" r="2.5"/>
        <circle cx="126.5" cy="33.5" r="2.5"/>
        <circle cx="157.5" cy="33.5" r="2.5"/>
        <circle cx="188.5" cy="33.5" r="2.5"/>
        <circle cx="219.5" cy="33.5" r="2.5"/>
        <circle cx="250.5" cy="33.5" r="2.5"/>
        <circle cx="281.5" cy="33.5" r="2.5"/>
        <circle cx="312.5" cy="33.5" r="2.5"/>
        <circle cx="343.5" cy="33.5" r="2.5"/>
        <circle cx="33.5" cy="64.5" r="2.5"/>
        <circle cx="64.5" cy="64.5" r="2.5"/>
        <circle cx="95.5" cy="64.5" r="2.5"/>
        <circle cx="126.5" cy="64.5" r="2.5"/>
        <circle cx="157.5" cy="64.5" r="2.5"/>
        <circle cx="188.5" cy="64.5" r="2.5"/>
        <circle cx="219.5" cy="64.5" r="2.5"/>
        <circle cx="250.5" cy="64.5" r="2.5"/>
        <circle cx="281.5" cy="64.5" r="2.5"/>
        <circle cx="312.5" cy="64.5" r="2.5"/>
        <circle cx="343.5" cy="64.5" r="2.5"/>
        <circle cx="33.5" cy="95.5" r="2.5"/>
        <circle cx="64.5" cy="95.5" r="2.5"/>
        <circle cx="95.5" cy="95.5" r="2.5"/>
        <circle cx="126.5" cy="95.5" r="2.5"/>
        <circle cx="157.5" cy="95.5" r="2.5"/>
        <circle cx="188.5" cy="95.5" r="2.5"/>
        <circle cx="219.5" cy="95.5" r="2.5"/>
        <circle cx="250.5" cy="95.5" r="2.5"/>
        <circle cx="281.5" cy="95.5" r="2.5"/>
        <circle cx="312.5" cy="95.5" r="2.5"/>
        <circle cx="343.5" cy="95.5" r="2.5"/>
        <circle cx="33.5" cy="126.5" r="2.5"/>
        <circle cx="64.5" cy="126.5" r="2.5"/>
        <circle cx="95.5" cy="126.5" r="2.5"/>
        <circle cx="126.5" cy="126.5" r="2.5"/>
        <circle cx="157.5" cy="126.5" r="2.5"/>
        <circle cx="188.5" cy="126.5" r="2.5"/>
        <circle cx="219.5" cy="126.5" r="2.5"/>
        <circle cx="250.5" cy="126.5" r="2.5"/>
        <circle cx="281.5" cy="126.5" r="2.5"/>
        <circle cx="312.5" cy="126.5" r="2.5"/>
        <circle cx="343.5" cy="126.5" r="2.5"/>
    </g>
</svg>
