<svg xmlns="http://www.w3.org/2000/svg" width="16" height="21" viewBox="0 0 16 21">
    <g fill="none" fill-rule="evenodd">
        <path fill="#FF3C45" d="M11.944 3.724c-3.412 0-6.179 2.697-6.179 6.032 0 2.439 1.114 4.809 2.492 6.782 1.34 1.93 2.875 3.413 3.687 4.137.813-.724 2.348-2.206 3.688-4.137 1.378-1.973 2.491-4.343 2.491-6.782 0-3.335-2.766-6.032-6.179-6.032zM4 9.756C4 5.473 7.556 2 11.944 2s7.945 3.473 7.945 7.756c0 2.93-1.325 5.636-2.797 7.756-1.479 2.12-3.165 3.732-4.018 4.49-.645.569-1.614.569-2.26 0-.852-.758-2.538-2.37-4.018-4.49C5.325 15.392 4 12.686 4 9.756zm7.944-1.724c-.974 0-1.765.776-1.765 1.724s.79 1.724 1.765 1.724c.975 0 1.766-.776 1.766-1.724s-.791-1.724-1.766-1.724zm-3.53 1.724c0-1.904 1.58-3.447 3.53-3.447 1.95 0 3.531 1.543 3.531 3.447 0 1.905-1.58 3.447-3.53 3.447-1.95 0-3.531-1.542-3.531-3.447z" transform="translate(-4 -2)"/>
    </g>
</svg>
