<svg xmlns="http://www.w3.org/2000/svg" width="12" height="14" viewBox="0 0 12 14">
    <g fill="#FFF" fill-rule="evenodd">
        <path d="M10 4.157c-2.291 0-4.148 1.81-4.148 4.05 0 1.637.747 3.228 1.673 4.553.899 1.296 1.93 2.291 2.475 2.777.545-.486 1.576-1.481 2.475-2.777.926-1.325 1.673-2.916 1.673-4.553 0-2.24-1.857-4.05-4.148-4.05zm-5.333 4.05C4.667 5.332 7.054 3 10 3s5.333 2.332 5.333 5.207c0 1.967-.89 3.784-1.877 5.207-.993 1.423-2.125 2.505-2.697 3.014-.434.382-1.084.382-1.518 0-.572-.51-1.704-1.591-2.697-3.014-.988-1.423-1.877-3.24-1.877-5.207zM10 7.05c-.654 0-1.185.52-1.185 1.157 0 .636.53 1.157 1.185 1.157.654 0 1.185-.52 1.185-1.157S10.655 7.05 10 7.05zM7.63 8.207c0-1.279 1.061-2.314 2.37-2.314 1.309 0 2.37 1.035 2.37 2.314 0 1.278-1.061 2.314-2.37 2.314-1.309 0-2.37-1.036-2.37-2.314z" transform="translate(-4 -3)"/>
    </g>
</svg>
