<svg xmlns="http://www.w3.org/2000/svg" width="18" height="18" viewBox="0 0 18 18">
    <g fill="none" fill-rule="evenodd">
        <path fill="#FF3C45" d="M5.39 4.643c-.477 0-.78.373-.743.738.73 7.375 6.597 13.242 13.972 13.972.365.037.738-.266.738-.744v-2.924c0-.353-.226-.667-.562-.779l-2.842-.948c-.295-.097-.62-.02-.84.2l-.456.454c-.544.544-1.411.649-2.068.2-1.554-1.064-2.459-1.963-3.424-3.415-.436-.657-.322-1.51.213-2.044l.465-.465c.22-.22.296-.546.198-.84l-.947-2.843c-.112-.336-.426-.562-.78-.562H5.392zm-2.378.9C2.869 4.103 4.054 3 5.39 3h2.924c1.06 0 2.002.679 2.337 1.685l.948 2.842c.295.886.065 1.863-.596 2.523l-.457.457c.83 1.246 1.576 1.993 2.954 2.938l.45-.45c.66-.66 1.636-.89 2.522-.595l2.842.948c1.006.335 1.685 1.277 1.685 2.337v2.924c0 1.337-1.102 2.522-2.543 2.38-8.154-.808-14.638-7.292-15.445-15.446zm11.416-1.721c0-.454.368-.822.821-.822C18.425 3 21 5.575 21 8.75c0 .454-.368.822-.822.822-.453 0-.821-.368-.821-.821 0-2.269-1.84-4.108-4.108-4.108-.453 0-.821-.368-.821-.821zm0 3.286c0-.454.368-.822.821-.822 1.362 0 2.465 1.103 2.465 2.465 0 .453-.368.821-.822.821-.453 0-.821-.368-.821-.821 0-.454-.368-.822-.822-.822-.453 0-.821-.368-.821-.821z" transform="translate(-3 -3)"/>
    </g>
</svg>
