<svg xmlns="http://www.w3.org/2000/svg" width="21" height="21" viewBox="0 0 21 21">
    <g fill="none" fill-rule="evenodd">
        <path fill="#333" fill-opacity=".7" d="M11.79 11.917c-.558 0-.912.435-.869.86.852 8.605 7.697 15.45 16.301 16.302.426.043.861-.31.861-.868v-3.412c0-.412-.263-.778-.655-.908l-3.317-1.106c-.344-.114-.723-.025-.98.232l-.531.53c-.635.635-1.647.757-2.413.233-1.813-1.24-2.868-2.29-3.994-3.984-.51-.766-.376-1.761.248-2.384l.542-.543c.257-.257.346-.636.231-.98l-1.105-3.317c-.13-.392-.496-.655-.908-.655h-3.412zm-2.776 1.05C8.847 11.287 10.23 10 11.789 10h3.412c1.237 0 2.335.792 2.726 1.966l1.106 3.316c.344 1.033.076 2.173-.695 2.942l-.533.534c.968 1.453 1.838 2.326 3.446 3.428l.525-.524c.77-.771 1.909-1.04 2.942-.695l3.316 1.106c1.174.39 1.966 1.49 1.966 2.726v3.412c0 1.559-1.286 2.942-2.967 2.775-9.513-.942-17.077-8.506-18.02-18.019zm13.318-2.009c0-.529.43-.958.959-.958C26.996 10 30 13.004 30 16.71c0 .528-.43.958-.958.958-.53 0-.959-.43-.959-.959 0-2.646-2.146-4.792-4.792-4.792-.53 0-.959-.43-.959-.959zm0 3.834c0-.529.43-.958.959-.958 1.588 0 2.875 1.287 2.875 2.875 0 .53-.43.959-.958.959-.53 0-.959-.43-.959-.959 0-.529-.43-.958-.958-.958-.53 0-.959-.43-.959-.959z" transform="translate(-9 -10)"/>
    </g>
</svg>
