<svg xmlns="http://www.w3.org/2000/svg" width="20" height="20" viewBox="0 0 20 20">
    <g fill="none" fill-rule="evenodd">
        <path fill="#FF3C45" d="M3.708 11.167h4.139c.071-2.278.438-4.353 1.013-5.934.148-.405.312-.787.494-1.137-3.052 1.02-5.317 3.76-5.646 7.07zM12 2C6.478 2 2 6.478 2 12c0 5.523 4.478 10 10 10 5.523 0 10-4.477 10-10 0-5.522-4.477-10-10-10zm0 1.667c-.126 0-.353.067-.666.43-.309.36-.626.93-.908 1.705-.498 1.37-.84 3.245-.912 5.365h4.972c-.072-2.12-.414-3.994-.912-5.364-.282-.776-.599-1.346-.908-1.706-.313-.363-.54-.43-.666-.43zm4.153 7.5c-.072-2.278-.438-4.353-1.013-5.934-.148-.405-.312-.787-.494-1.137 3.052 1.02 5.317 3.76 5.646 7.07h-4.139zm-1.667 1.666H9.514c.072 2.12.414 3.995.912 5.365.282.775.599 1.345.908 1.705.313.363.54.43.666.43s.353-.067.666-.43c.309-.36.626-.93.908-1.705.498-1.37.84-3.245.912-5.365zm.16 7.071c.182-.35.346-.732.494-1.137.575-1.581.94-3.656 1.013-5.934h4.14c-.33 3.31-2.595 6.05-5.647 7.071zm-5.292 0c-.182-.35-.346-.732-.494-1.137-.575-1.581-.942-3.656-1.013-5.934h-4.14c.33 3.31 2.595 6.05 5.647 7.071z" transform="translate(-2 -2)"/>
    </g>
</svg>
