<svg xmlns="http://www.w3.org/2000/svg" xmlns:xlink="http://www.w3.org/1999/xlink" width="18" height="18" viewBox="0 0 18 18">
    <defs>
        <path id="prefix__a" d="M0.032 0L17.999 0 17.999 17.998 0.032 17.998z"/>
    </defs>
    <g fill="none" fill-rule="evenodd">
        <mask id="prefix__b" fill="#fff">
            <use xlink:href="#prefix__a"/>
        </mask>
        <path fill="#FF3C45" d="M17.982 5.292c-.042-.956-.196-1.614-.418-2.184-.229-.604-.58-1.146-1.04-1.596-.451-.457-.996-.812-1.594-1.037-.573-.222-1.227-.376-2.183-.419C11.783.011 11.477 0 9.033 0c-2.443 0-2.75.01-3.71.053C4.368.095 3.71.25 3.14.47c-.605.229-1.146.58-1.596 1.041-.458.45-.813.995-1.038 1.593C.285 3.678.13 4.332.088 5.288c-.046.964-.056 1.27-.056 3.714s.01 2.75.052 3.71c.043.956.197 1.613.419 2.183.228.605.583 1.146 1.04 1.597.45.457.996.812 1.594 1.037.573.221 1.227.376 2.183.418.96.043 1.266.053 3.71.053s2.75-.01 3.71-.053c.956-.042 1.614-.197 2.183-.418 1.21-.468 2.166-1.424 2.634-2.634.221-.573.376-1.227.418-2.184.043-.96.053-1.265.053-3.71 0-2.443-.004-2.749-.046-3.709zm-1.62 7.35c-.04.878-.187 1.353-.31 1.67-.302.784-.925 1.406-1.709 1.708-.316.123-.795.271-1.67.31-.95.042-1.234.052-3.636.052s-2.69-.01-3.636-.052c-.88-.039-1.354-.187-1.67-.31-.39-.144-.746-.372-1.034-.671-.299-.292-.527-.644-.672-1.034-.123-.316-.27-.795-.309-1.67-.042-.95-.053-1.235-.053-3.636 0-2.402.01-2.69.053-3.636.039-.88.186-1.354.31-1.67.144-.39.372-.746.675-1.034.291-.299.643-.528 1.033-.672.317-.123.795-.27 1.67-.31.95-.041 1.235-.052 3.636-.052 2.406 0 2.69.01 3.636.053.88.039 1.354.186 1.67.31.39.143.746.372 1.034.67.3.293.528.644.672 1.035.123.316.27.794.31 1.67.042.95.052 1.234.052 3.636 0 2.401-.01 2.683-.053 3.632z" mask="url(#prefix__b)"/>
        <path fill="#FF3C45" d="M9.033 4.378c-2.552 0-4.624 2.07-4.624 4.624 0 2.553 2.072 4.624 4.624 4.624 2.553 0 4.624-2.071 4.624-4.624 0-2.553-2.07-4.624-4.624-4.624zm0 7.623c-1.656 0-3-1.343-3-3 0-1.655 1.344-2.999 3-2.999 1.657 0 3 1.344 3 3s-1.343 3-3 3zM14.92 4.195c0 .596-.484 1.08-1.08 1.08-.596 0-1.08-.484-1.08-1.08 0-.596.484-1.08 1.08-1.08.596 0 1.08.484 1.08 1.08z"/>
    </g>
</svg>
