<svg xmlns="http://www.w3.org/2000/svg" width="80" height="80" viewBox="0 0 80 80">
    <g fill="none" fill-rule="evenodd">
        <circle cx="40" cy="40" r="40" fill="#FF3C45"/>
        <g fill="#FFF">
            <path d="M24 9.977c-5.498 0-9.956 4.346-9.956 9.72 0 3.929 1.794 7.747 4.015 10.927 2.158 3.11 4.633 5.498 5.941 6.665 1.308-1.167 3.783-3.555 5.94-6.665 2.222-3.18 4.016-6.998 4.016-10.928 0-5.373-4.458-9.719-9.956-9.719zm-12.8 9.72C11.2 12.795 16.93 7.2 24 7.2s12.8 5.596 12.8 12.496c0 4.721-2.135 9.081-4.506 12.497-2.383 3.416-5.1 6.012-6.474 7.234-1.04.916-2.6.916-3.64 0-1.374-1.222-4.09-3.818-6.474-7.234-2.371-3.416-4.506-7.776-4.506-12.497zM24 16.918c-1.57 0-2.844 1.25-2.844 2.777 0 1.528 1.274 2.777 2.844 2.777 1.57 0 2.844-1.25 2.844-2.777 0-1.527-1.274-2.777-2.844-2.777zm-5.689 2.777c0-3.068 2.547-5.554 5.689-5.554s5.689 2.486 5.689 5.554c0 3.069-2.547 5.554-5.689 5.554s-5.689-2.485-5.689-5.554z" transform="translate(16 16)"/>
        </g>
    </g>
</svg>
