<svg xmlns="http://www.w3.org/2000/svg" width="80" height="80" viewBox="0 0 80 80">
    <g fill="none" fill-rule="evenodd">
        <circle cx="40" cy="40" r="40" fill="#FF3C45"/>
        <g fill="#FFF">
            <path d="M13.425 12.229c-.765 0-1.25.597-1.19 1.18 1.168 11.8 10.556 21.188 22.356 22.356.583.06 1.18-.425 1.18-1.19v-4.679c0-.565-.361-1.067-.899-1.246l-4.548-1.517c-.472-.156-.992-.034-1.345.319l-.728.728c-.87.87-2.258 1.037-3.308.318-2.487-1.701-3.935-3.139-5.479-5.463-.698-1.052-.515-2.416.34-3.27l.744-.744c.353-.353.475-.873.317-1.345l-1.515-4.548c-.18-.538-.681-.9-1.246-.9h-4.679zm-3.806 1.44C9.39 11.365 11.287 9.6 13.425 9.6h4.679c1.697 0 3.203 1.086 3.74 2.696l1.516 4.548c.472 1.417.104 2.98-.953 4.035l-.732.732c1.328 1.993 2.521 3.19 4.727 4.7l.719-.718c1.055-1.057 2.618-1.425 4.035-.953l4.548 1.517c1.61.536 2.696 2.042 2.696 3.74v4.678c0 2.138-1.764 4.035-4.07 3.806C21.285 37.09 10.91 26.715 9.62 13.67zm18.265-2.755c0-.725.59-1.314 1.315-1.314 5.082 0 9.201 4.12 9.201 9.201 0 .726-.589 1.315-1.314 1.315-.726 0-1.315-.59-1.315-1.315 0-3.629-2.943-6.572-6.572-6.572-.726 0-1.315-.589-1.315-1.315zm0 5.258c0-.725.59-1.314 1.315-1.314 2.178 0 3.943 1.765 3.943 3.943 0 .726-.589 1.315-1.314 1.315-.726 0-1.315-.59-1.315-1.315s-.589-1.314-1.314-1.314c-.726 0-1.315-.59-1.315-1.315z" transform="translate(15 17)"/>
        </g>
    </g>
</svg>
