<svg xmlns="http://www.w3.org/2000/svg" width="80" height="80" viewBox="0 0 80 80">
    <g fill="none" fill-rule="evenodd">
        <circle cx="40" cy="40" r="40" fill="#FF3C45"/>
        <path fill="#FFF" fill-rule="nonzero" d="M40 21c10.493 0 19 8.507 19 19s-8.507 19-19 19-19-8.507-19-19 8.507-19 19-19zm.02 10.927c-2.926 0-5.406 2.38-5.406 5.693 0 1.928.629 3.184 1.967 4.439.481.395.855.852 1.123 1.356.536 1.008.597 2.049.39 3-.043.195-.09.35-.09.332-.464 1.712-1.665 2.447-4.3 3.34l-.876.294c-.34.114-.607.207-.86.3-1.142.418-1.988.844-2.621 1.359 2.836 2.512 6.567 4.037 10.653 4.037 4.094 0 7.83-1.53 10.67-4.05-.626-.49-1.462-.897-2.601-1.304-.22-.078-.45-.157-.743-.255l-.758-.252c-2.743-.919-3.978-1.661-4.51-3.4-.033-.104-.072-.251-.108-.437-.165-.865-.128-1.803.271-2.727.26-.6.659-1.14 1.158-1.552 1.405-1.26 2.049-2.55 2.049-4.48 0-3.256-2.517-5.693-5.407-5.693zM40 23.923c-8.879 0-16.077 7.198-16.077 16.077 0 3.731 1.271 7.165 3.404 9.894.936-.804 2.117-1.409 3.62-1.96.281-.103.57-.203.933-.325l.87-.292c1.699-.576 2.301-.945 2.447-1.458-.005.014.002-.01.014-.063.073-.336.052-.7-.115-1.015-.087-.163-.214-.318-.466-.53-1.965-1.836-2.965-3.833-2.965-6.63 0-4.954 3.823-8.621 8.356-8.621 4.502 0 8.356 3.731 8.356 8.62 0 2.806-1.027 4.864-3.064 6.69-.181.15-.302.313-.381.496-.134.311-.15.686-.084 1.028.011.06.02.091.025.108.151.494.801.885 2.638 1.5l.755.251c.31.104.56.19.802.276 1.513.54 2.687 1.124 3.62 1.906 2.124-2.726 3.389-6.153 3.389-9.875 0-8.879-7.198-16.077-16.077-16.077z"/>
    </g>
</svg>
